<svg width="1025" height="207" viewBox="0 0 1025 207" fill="none" xmlns="http://www.w3.org/2000/svg">
<path d="M161.626 106.71C160.436 136.05 138.186 159.64 110.046 163.5C105.816 164.08 102.706 167.77 102.706 172.04C102.706 177.27 107.326 181.35 112.506 180.64C148.736 175.63 177.396 145.22 178.926 107.42C180.366 71.87 157.366 40.9 124.926 30.75C119.326 29 113.616 33.1 113.616 38.97C113.616 42.72 115.986 46.15 119.566 47.26C144.816 55.06 162.746 79.08 161.626 106.71Z" fill="#3D65B0"/>
<path d="M56.426 170.58C52.456 170.58 48.786 171.89 45.816 174.07C23.806 156.47 11.276 129.59 12.446 100.66C13.566 72.98 27.316 47.86 49.226 31.92C52.306 34.42 56.236 35.92 60.506 35.92C70.426 35.92 78.466 27.88 78.466 17.96C78.466 8.03999 70.426 0 60.506 0C50.586 0 42.546 8.03999 42.546 17.96C42.546 19.1 42.666 20.2 42.866 21.28C17.396 39.38 1.38597 68.28 0.0859707 100.16C-1.26403 133.47 13.356 164.4 38.956 184.41C38.646 185.74 38.456 187.11 38.456 188.54C38.456 198.46 46.496 206.5 56.416 206.5C66.336 206.5 74.376 198.46 74.376 188.54C74.386 178.62 66.346 170.58 56.426 170.58Z" fill="#3D65B0"/>
<path d="M281.276 142.49C273.946 142.49 267.656 146.88 264.866 153.17H177.046C177.036 153.18 177.026 153.18 177.016 153.19L175.176 155.8C159.506 178.04 135.016 191.72 108.346 193.6C105.096 193.83 102.566 196.5 102.566 199.75C102.566 203.32 105.586 206.19 109.146 205.94C138.486 203.89 165.476 189.33 183.366 165.56C183.376 165.55 183.386 165.55 183.396 165.54H264.056C266.256 172.98 273.126 178.42 281.276 178.42C291.196 178.42 299.236 170.38 299.236 160.46C299.236 150.53 291.196 142.49 281.276 142.49Z" fill="#3D65B0"/>
<path d="M324.186 115.89C316.676 115.89 310.256 120.5 307.566 127.04H198.856C195.436 127.04 192.676 129.81 192.676 133.22C192.676 136.64 195.446 139.4 198.856 139.4H307.106C309.446 146.6 316.206 151.8 324.176 151.8C334.096 151.8 342.136 143.76 342.136 133.84C342.146 123.93 334.106 115.89 324.186 115.89Z" fill="#3D65B0"/>
<path d="M360.106 67.33C353.006 67.33 346.886 71.46 343.966 77.44H276.346L251.806 101.98H203.796C202.666 50.85 163.426 8.25 112.576 2.93C109.036 2.56 105.926 5.30001 105.776 8.85001C105.646 12.1 108.056 14.89 111.296 15.23C157.826 20.1 193.296 60.51 191.376 107.91L191.116 114.34H256.926L281.466 89.8H342.736C344.746 97.53 351.746 103.24 360.106 103.24C370.026 103.24 378.066 95.2 378.066 85.28C378.076 75.37 370.026 67.33 360.106 67.33Z" fill="#3D65B0"/>
<path d="M218.536 71.85C226.276 71.85 232.856 66.94 235.386 60.07H307.346C309.866 66.94 316.446 71.85 324.196 71.85C334.116 71.85 342.156 63.81 342.156 53.89C342.156 43.97 334.116 35.93 324.196 35.93C316.456 35.93 309.876 40.84 307.346 47.71H235.376C232.856 40.84 226.276 35.93 218.526 35.93C208.606 35.93 200.566 43.97 200.566 53.89C200.566 63.81 208.616 71.85 218.536 71.85Z" fill="#3D65B0"/>
<path d="M81.706 79.43V97.18H110.326V113.68H81.706V132.93H114.076V150.05H60.326V62.3H114.076V79.42H81.706V79.43Z" fill="#3D65B0"/>
<path d="M416.606 67.87V73.12H428.556V81.45H416.606V86.84H431.116V96.2H406.736V58.59H431.116V67.88H416.606V67.87Z" fill="black"/>
<path d="M469.536 77.44C469.536 89.11 461.716 96.2 448.936 96.2H436.666V58.61L448.936 58.59C461.716 58.54 469.536 65.68 469.536 77.44ZM459.526 77.42C459.526 71.52 455.416 67.92 448.676 67.92H446.386V86.8H448.766C455.446 86.79 459.526 83.25 459.526 77.42Z" fill="black"/>
<path d="M474.426 58.59H484.416V96.2H474.426V58.59Z" fill="black"/>
<path d="M500.816 67.87V73.96H512.766V82.31H500.816V96.24H490.946V58.49H515.326V67.87H500.816Z" fill="black"/>
<path d="M519.566 58.59H529.556V96.2H519.566V58.59Z" fill="black"/>
<path d="M534.446 77.39C534.446 66.26 543.456 57.7 555.166 57.7C560.016 57.77 565.226 59.89 569.076 63.39L563.336 70.76C561.026 68.66 557.966 67.28 555.196 67.28C549.406 67.28 544.576 71.69 544.576 77.45C544.576 83.28 549.616 87.58 554.986 87.58C558.136 87.58 560.956 86.09 563.386 83.92L569.076 91.5C565.486 94.77 560.696 97.03 554.986 97.03C544.366 97.04 534.446 89.2 534.446 77.39Z" fill="black"/>
<path d="M583.186 67.87V73.12H595.136V81.45H583.186V86.84H597.696V96.2H573.316V58.59H597.696V67.88H583.186V67.87Z" fill="black"/>
<path d="M643.586 67.92H634.576V96.2H624.566V67.92H615.536V58.59H643.586V67.92Z" fill="black"/>
<path d="M657.686 67.87V73.12H669.636V81.45H657.686V86.84H672.196V96.2H647.816V58.59H672.196V67.88H657.686V67.87Z" fill="black"/>
<path d="M676.116 77.39C676.116 66.26 685.126 57.7 696.836 57.7C701.686 57.77 706.896 59.89 710.746 63.39L705.006 70.76C702.696 68.66 699.636 67.28 696.866 67.28C691.076 67.28 686.246 71.69 686.246 77.45C686.246 83.28 691.286 87.58 696.656 87.58C699.806 87.58 702.626 86.09 705.056 83.92L710.746 91.5C707.156 94.77 702.366 97.03 696.656 97.03C686.036 97.04 676.116 89.2 676.116 77.39Z" fill="black"/>
<path d="M746.106 58.59V96.2H736.146V82.04H724.966V96.2H714.976V58.59H724.966V72.71H736.146V58.59H746.106Z" fill="black"/>
<path d="M785.136 58.54V96.57H781.966L762.626 77.83V96.22H752.636V58.21H755.856L775.126 76.88V58.54H785.136Z" fill="black"/>
<path d="M790.026 77.44C790.026 66.15 798.986 57.58 810.676 57.58C822.366 57.58 831.326 66.14 831.326 77.44C831.326 88.64 822.366 97.16 810.656 97.16C798.966 97.15 790.026 88.64 790.026 77.44ZM821.216 77.37C821.216 71.56 816.646 67.08 810.666 67.08C804.686 67.08 800.116 71.56 800.116 77.37C800.116 83.16 804.686 87.61 810.666 87.61C816.646 87.61 821.216 83.16 821.216 77.37Z" fill="black"/>
<path d="M860.596 86.82V96.2H836.216V58.59H846.206V86.82H860.596Z" fill="black"/>
<path d="M862.616 77.44C862.616 66.15 871.576 57.58 883.266 57.58C894.956 57.58 903.916 66.14 903.916 77.44C903.916 88.64 894.956 97.16 883.246 97.16C871.556 97.15 862.616 88.64 862.616 77.44ZM893.816 77.37C893.816 71.56 889.246 67.08 883.266 67.08C877.286 67.08 872.716 71.56 872.716 77.37C872.716 83.16 877.286 87.61 883.266 87.61C889.246 87.61 893.816 83.16 893.816 77.37Z" fill="black"/>
<path d="M947.476 78.26C947.476 89.69 938.846 97.09 928.156 97.09C916.206 97.09 907.176 88.18 907.176 77.44C907.176 66.71 916.226 57.68 927.896 57.68C932.676 57.75 938.206 59.78 941.316 62.65L935.786 70.23C933.686 68.27 930.676 67.01 927.896 67.01C922.296 67.01 917.376 71.61 917.376 77.42C917.376 82.69 921.596 87.83 928.556 87.83C933.106 87.83 936.346 85.64 936.486 82.04H927.876V74.6H947.176C947.356 75.85 947.476 77.07 947.476 78.26Z" fill="black"/>
<path d="M952.366 58.59H962.356V96.2H952.366V58.59Z" fill="black"/>
<path d="M978.746 67.87V73.12H990.696V81.45H978.746V86.84H993.256V96.2H968.876V58.59H993.256V67.88H978.746V67.87Z" fill="black"/>
<path d="M996.846 89.83L1002.89 83.9C1004.45 86.21 1007.37 87.61 1010.52 87.61C1012.64 87.61 1014.72 86.84 1014.72 85.3C1014.72 83.36 1010.87 81.66 1007.18 80.03C1002.42 77.98 998.336 74.85 998.336 69.18C998.336 62.67 1004.52 58.03 1011.66 58.03C1017.4 58.03 1021.88 60.74 1023.35 64.45L1017.59 70C1016.47 68.02 1013.58 67.15 1011.78 67.15C1009.73 67.15 1008.26 68.2 1008.26 69.48C1008.26 71.21 1010.92 71.77 1014.98 73.47C1020.86 75.94 1024.76 79.54 1024.76 85.09C1024.76 92.25 1018.09 96.71 1010.55 96.71C1004.36 96.71 998.736 93.98 996.846 89.83Z" fill="black"/>
<path d="M406.736 137.85H551.766" stroke="black" stroke-width="4.2689" stroke-miterlimit="10"/>
<path d="M594.526 127.05V129.41H584.136V136.69H594.526V139.05H584.136V146.33H594.526V148.69H581.006V127.05H594.526Z" fill="black"/>
<path d="M601.436 127.05L615.596 144.34V127.05H618.716V148.68H615.266L601.476 131.83V148.68H598.356V127.05H601.436Z" fill="black"/>
<path d="M629.426 137.3C627.646 136.79 626.206 136.06 625.126 135.12C624.046 134.18 623.506 133.04 623.506 131.71C623.506 130.41 624.066 129.26 625.186 128.28C626.306 127.29 627.706 126.8 629.376 126.8C631.026 126.8 632.436 127.31 633.606 128.32C634.216 128.84 634.696 129.57 635.036 130.51L632.236 131.46C631.886 130.65 631.576 130.12 631.306 129.88C630.746 129.38 630.096 129.13 629.376 129.13C628.666 129.13 628.026 129.37 627.466 129.86C626.906 130.35 626.626 130.96 626.626 131.72C626.626 132.46 626.916 133.09 627.486 133.61C628.086 134.11 628.906 134.57 629.936 134.99C631.916 135.55 633.576 136.41 634.906 137.57C636.436 138.89 637.206 140.46 637.206 142.26C637.206 144.06 636.446 145.63 634.936 146.94C633.426 148.26 631.566 148.92 629.366 148.92C627.156 148.92 625.286 148.24 623.756 146.89C622.556 145.86 621.826 144.52 621.546 142.88L624.546 141.93C624.726 143.5 625.246 144.65 626.086 145.37C627.006 146.17 628.096 146.57 629.366 146.57C630.646 146.57 631.756 146.16 632.706 145.33C633.656 144.5 634.126 143.48 634.126 142.26C634.126 141.04 633.656 140.02 632.726 139.21C631.796 138.4 630.686 137.76 629.426 137.3Z" fill="black"/>
<path d="M654.056 127.05H657.176V142.35C656.906 144.04 656.076 145.5 654.676 146.72C653.056 148.14 651.046 148.85 648.646 148.85C646.226 148.85 644.196 148.13 642.556 146.69C640.906 145.25 640.086 143.55 640.086 141.57V127.05H643.206V141.59C643.206 142.97 643.746 144.14 644.826 145.08C645.906 146.03 647.176 146.5 648.646 146.5C650.096 146.5 651.356 146.03 652.436 145.08C653.516 144.13 654.046 142.97 654.046 141.59V127.05H654.056Z" fill="black"/>
<path d="M667.096 141.6H664.176V148.68H661.056V127.05H668.166C670.236 127.29 671.966 128.02 673.366 129.24C674.986 130.65 675.796 132.34 675.796 134.31C675.796 136.28 674.966 138 673.296 139.45C672.196 140.42 671.216 141 670.366 141.18L675.946 148.68H672.336L667.096 141.6ZM664.176 129.42V139.22H667.246C668.696 139.22 669.966 138.75 671.046 137.82C672.126 136.88 672.666 135.71 672.666 134.31C672.666 132.92 672.126 131.76 671.046 130.82C669.966 129.89 668.696 129.42 667.246 129.42H664.176Z" fill="black"/>
<path d="M682.326 127.05V148.68H679.206V127.05H682.326Z" fill="black"/>
<path d="M689.396 127.05L703.556 144.34V127.05H706.676V148.68H703.226L689.436 131.83V148.68H686.316V127.05H689.396Z" fill="black"/>
<path d="M731.616 145.73C729.076 147.85 726.116 148.92 722.746 148.92C719.136 148.92 716.076 147.84 713.586 145.67C711.096 143.5 709.846 140.9 709.846 137.86C709.846 134.85 711.096 132.26 713.586 130.07C716.076 127.89 719.126 126.79 722.746 126.79C726.106 126.79 729.186 127.9 731.986 130.13L729.806 131.81C727.526 130.06 725.176 129.18 722.746 129.18C720.096 129.18 717.806 130.02 715.886 131.7C713.956 133.38 712.996 135.43 712.996 137.86C712.996 140.31 713.956 142.36 715.886 144.04C717.816 145.71 720.106 146.55 722.746 146.55C725.016 146.55 726.936 146 728.516 144.9V138.32H731.626V145.73H731.616Z" fill="black"/>
<path d="M756.026 127.05V129.41H747.096V136.69H756.026V139.05H747.096V148.69H743.976V127.05H756.026Z" fill="black"/>
<path d="M772.826 127.05H775.946V142.35C775.686 144.04 774.846 145.5 773.446 146.72C771.826 148.14 769.816 148.85 767.416 148.85C764.996 148.85 762.966 148.13 761.326 146.69C759.676 145.25 758.856 143.55 758.856 141.57V127.05H761.976V141.59C761.976 142.97 762.516 144.14 763.596 145.08C764.676 146.03 765.946 146.5 767.416 146.5C768.866 146.5 770.126 146.03 771.206 145.08C772.286 144.13 772.816 142.97 772.816 141.59V127.05H772.826Z" fill="black"/>
<path d="M787.486 129.41V148.68H784.376V129.41H778.436V127.05H793.406V129.41H787.486Z" fill="black"/>
<path d="M809.856 127.05H812.976V142.35C812.716 144.04 811.876 145.5 810.476 146.72C808.856 148.14 806.846 148.85 804.446 148.85C802.026 148.85 799.996 148.13 798.356 146.69C796.706 145.25 795.886 143.55 795.886 141.57V127.05H799.006V141.59C799.006 142.97 799.546 144.14 800.626 145.08C801.706 146.03 802.976 146.5 804.446 146.5C805.896 146.5 807.156 146.03 808.236 145.08C809.316 144.13 809.846 142.97 809.846 141.59V127.05H809.856Z" fill="black"/>
<path d="M822.896 141.6H819.976V148.68H816.856V127.05H823.966C826.036 127.29 827.766 128.02 829.166 129.24C830.786 130.65 831.596 132.34 831.596 134.31C831.596 136.28 830.766 138 829.096 139.45C827.986 140.42 827.016 141 826.156 141.18L831.736 148.68H828.126L822.896 141.6ZM819.976 129.42V139.22H823.046C824.496 139.22 825.766 138.75 826.846 137.82C827.926 136.88 828.466 135.71 828.466 134.31C828.466 132.92 827.926 131.76 826.846 130.82C825.766 129.89 824.496 129.42 823.046 129.42H819.976Z" fill="black"/>
<path d="M848.346 127.05V129.41H837.956V136.69H848.346V139.05H837.956V146.33H848.346V148.69H834.826V127.05H848.346Z" fill="black"/>
<path d="M874.466 132.46L879.486 143.75L884.636 127.05H887.796L881.136 148.68H878.406L873.436 137.29L868.446 148.68H865.716L859.056 127.05H862.236L867.396 143.75L872.386 132.46H874.466Z" fill="black"/>
<path d="M893.026 127.05V148.68H889.906V127.05H893.026Z" fill="black"/>
<path d="M904.726 129.41V148.68H901.616V129.41H895.676V127.05H910.646V129.41H904.726Z" fill="black"/>
<path d="M915.956 139.04V148.68H912.836V127.05H915.956V136.69H926.156V127.05H929.276V148.68H926.156V139.04H915.956Z" fill="black"/>
<path d="M949.276 129.41V148.68H946.166V129.41H940.226V127.05H955.196V129.41H949.276Z" fill="black"/>
<path d="M971.206 127.05V129.41H960.816V136.69H971.206V139.05H960.816V146.33H971.206V148.69H957.686V127.05H971.206Z" fill="black"/>
<path d="M994.366 143.91L996.546 145.59C993.746 147.81 990.666 148.91 987.306 148.91C983.696 148.91 980.636 147.83 978.146 145.66C975.656 143.49 974.406 140.89 974.406 137.85C974.406 134.84 975.656 132.25 978.146 130.06C980.636 127.88 983.696 126.78 987.306 126.78C990.666 126.78 993.746 127.89 996.546 130.12L994.366 131.8C992.086 130.05 989.736 129.17 987.306 129.17C984.656 129.17 982.366 130.01 980.446 131.69C978.516 133.37 977.556 135.42 977.556 137.85C977.556 140.3 978.516 142.35 980.446 144.03C982.376 145.7 984.666 146.54 987.306 146.54C989.736 146.54 992.096 145.67 994.366 143.91Z" fill="black"/>
<path d="M1002.38 139.04V148.68H999.256V127.05H1002.38V136.69H1012.58V127.05H1015.7V148.68H1012.58V139.04H1002.38Z" fill="black"/>
</svg>
