<svg width="1200" height="207" viewBox="0 0 1200 207" fill="none" xmlns="http://www.w3.org/2000/svg">
<path d="M161.626 106.71C160.436 136.05 138.186 159.64 110.046 163.5C105.816 164.08 102.706 167.77 102.706 172.04C102.706 177.27 107.326 181.35 112.506 180.64C148.736 175.63 177.396 145.22 178.926 107.42C180.366 71.87 157.366 40.9 124.926 30.75C119.326 29 113.616 33.1 113.616 38.97C113.616 42.72 115.986 46.15 119.566 47.26C144.816 55.06 162.746 79.08 161.626 106.71Z" fill="#3D65B0"/>
<path d="M56.426 170.58C52.456 170.58 48.786 171.89 45.816 174.07C23.806 156.47 11.276 129.59 12.446 100.66C13.566 72.98 27.316 47.86 49.226 31.92C52.306 34.42 56.236 35.92 60.506 35.92C70.426 35.92 78.466 27.88 78.466 17.96C78.466 8.03999 70.426 0 60.506 0C50.586 0 42.546 8.03999 42.546 17.96C42.546 19.1 42.666 20.2 42.866 21.28C17.396 39.38 1.38597 68.28 0.0859707 100.16C-1.26403 133.47 13.356 164.4 38.956 184.41C38.646 185.74 38.456 187.11 38.456 188.54C38.456 198.46 46.496 206.5 56.416 206.5C66.336 206.5 74.376 198.46 74.376 188.54C74.386 178.62 66.346 170.58 56.426 170.58Z" fill="#3D65B0"/>
<path d="M281.276 142.49C273.946 142.49 267.656 146.88 264.866 153.17H177.046C177.036 153.18 177.026 153.18 177.016 153.19L175.176 155.8C159.506 178.04 135.016 191.72 108.346 193.6C105.096 193.83 102.566 196.5 102.566 199.75C102.566 203.32 105.586 206.19 109.146 205.94C138.486 203.89 165.476 189.33 183.366 165.56C183.376 165.55 183.386 165.55 183.396 165.54H264.056C266.256 172.98 273.126 178.42 281.276 178.42C291.196 178.42 299.236 170.38 299.236 160.46C299.236 150.53 291.196 142.49 281.276 142.49Z" fill="#3D65B0"/>
<path d="M324.186 115.89C316.676 115.89 310.256 120.5 307.566 127.04H198.856C195.436 127.04 192.676 129.81 192.676 133.22C192.676 136.64 195.446 139.4 198.856 139.4H307.106C309.446 146.6 316.206 151.8 324.176 151.8C334.096 151.8 342.136 143.76 342.136 133.84C342.146 123.93 334.106 115.89 324.186 115.89Z" fill="#3D65B0"/>
<path d="M360.106 67.33C353.006 67.33 346.886 71.46 343.966 77.44H276.346L251.806 101.98H203.796C202.666 50.85 163.426 8.25 112.576 2.93C109.036 2.56 105.926 5.30001 105.776 8.85001C105.646 12.1 108.056 14.89 111.296 15.23C157.826 20.1 193.296 60.51 191.376 107.91L191.116 114.34H256.926L281.466 89.8H342.736C344.746 97.53 351.746 103.24 360.106 103.24C370.026 103.24 378.066 95.2 378.066 85.28C378.076 75.37 370.026 67.33 360.106 67.33Z" fill="#3D65B0"/>
<path d="M218.536 71.85C226.276 71.85 232.856 66.94 235.386 60.07H307.346C309.866 66.94 316.446 71.85 324.196 71.85C334.116 71.85 342.156 63.81 342.156 53.89C342.156 43.97 334.116 35.93 324.196 35.93C316.456 35.93 309.876 40.84 307.346 47.71H235.376C232.856 40.84 226.276 35.93 218.526 35.93C208.606 35.93 200.566 43.97 200.566 53.89C200.566 63.81 208.616 71.85 218.536 71.85Z" fill="#3D65B0"/>
<path d="M81.706 79.43V97.18H110.326V113.68H81.706V132.93H114.076V150.05H60.326V62.3H114.076V79.42H81.706V79.43Z" fill="#3D65B0"/>
<path d="M427.535 61.0681V67.7355H442.711V78.3145H427.535V85.1597H445.962V97.0467H415V49.2827H445.962V61.0808H427.535V61.0681Z" fill="black"/>
<path d="M494.755 73.2218C494.755 88.0425 484.824 97.0467 468.593 97.0467H453.011V49.3081L468.593 49.2827C484.824 49.2192 494.755 58.2868 494.755 73.2218ZM482.042 73.1964C482.042 65.7035 476.823 61.1316 468.263 61.1316H465.355V85.1088H468.377C476.861 85.0961 482.042 80.6004 482.042 73.1964Z" fill="black"/>
<path d="M500.965 49.2827H513.652V97.0467H500.965V49.2827Z" fill="black"/>
<path d="M534.48 61.0681V68.8023H549.656V79.4066H534.48V97.0974H521.945V49.1557H552.907V61.0681H534.48Z" fill="black"/>
<path d="M558.292 49.2827H570.979V97.0467H558.292V49.2827Z" fill="black"/>
<path d="M577.189 73.1583C577.189 59.0235 588.632 48.1524 603.503 48.1524C609.663 48.2413 616.279 50.9337 621.169 55.3786L613.879 64.7384C610.945 62.0714 607.059 60.3188 603.541 60.3188C596.188 60.3188 590.054 65.9195 590.054 73.2345C590.054 80.6385 596.455 86.0994 603.275 86.0994C607.275 86.0994 610.856 84.2071 613.942 81.4513L621.169 91.0778C616.609 95.2306 610.526 98.1008 603.275 98.1008C589.787 98.1135 577.189 88.1568 577.189 73.1583Z" fill="black"/>
<path d="M639.088 61.0681V67.7355H654.264V78.3145H639.088V85.1597H657.515V97.0467H626.553V49.2827H657.515V61.0808H639.088V61.0681Z" fill="black"/>
<path d="M715.795 61.1316H704.352V97.0467H691.64V61.1316H680.172V49.2827H715.795V61.1316Z" fill="black"/>
<path d="M733.702 61.0681V67.7355H748.878V78.3145H733.702V85.1597H752.129V97.0467H721.167V49.2827H752.129V61.0808H733.702V61.0681Z" fill="black"/>
<path d="M757.107 73.1583C757.107 59.0235 768.55 48.1524 783.421 48.1524C789.581 48.2413 796.197 50.9337 801.087 55.3786L793.797 64.7384C790.863 62.0714 786.977 60.3188 783.459 60.3188C776.106 60.3188 769.972 65.9195 769.972 73.2345C769.972 80.6385 776.373 86.0994 783.193 86.0994C787.193 86.0994 790.774 84.2071 793.861 81.4513L801.087 91.0778C796.527 95.2306 790.444 98.1008 783.193 98.1008C769.706 98.1135 757.107 88.1568 757.107 73.1583Z" fill="black"/>
<path d="M845.993 49.2827V97.0467H833.344V79.0637H819.146V97.0467H806.459V49.2827H819.146V67.2148H833.344V49.2827H845.993Z" fill="black"/>
<path d="M895.561 49.2192V97.5166H891.535L866.973 73.7171V97.072H854.286V48.8001H858.376L882.848 72.5106V49.2192H895.561Z" fill="black"/>
<path d="M901.771 73.2218C901.771 58.8838 913.15 48 927.996 48C942.842 48 954.221 58.8711 954.221 73.2218C954.221 87.4456 942.842 98.2658 927.971 98.2658C913.124 98.2531 901.771 87.4456 901.771 73.2218ZM941.382 73.1329C941.382 65.7543 935.578 60.0648 927.983 60.0648C920.389 60.0648 914.585 65.7543 914.585 73.1329C914.585 80.4861 920.389 86.1375 927.983 86.1375C935.578 86.1375 941.382 80.4861 941.382 73.1329Z" fill="black"/>
<path d="M991.393 85.1343V97.0467H960.431V49.2827H973.118V85.1343H991.393Z" fill="black"/>
<path d="M993.959 73.2218C993.959 58.8838 1005.34 48 1020.18 48C1035.03 48 1046.41 58.8711 1046.41 73.2218C1046.41 87.4456 1035.03 98.2658 1020.16 98.2658C1005.31 98.2531 993.959 87.4456 993.959 73.2218ZM1033.58 73.1329C1033.58 65.7543 1027.78 60.0648 1020.18 60.0648C1012.59 60.0648 1006.79 65.7543 1006.79 73.1329C1006.79 80.4861 1012.59 86.1375 1020.18 86.1375C1027.78 86.1375 1033.58 80.4861 1033.58 73.1329Z" fill="black"/>
<path d="M1101.73 74.2632C1101.73 88.7791 1090.77 98.177 1077.19 98.177C1062.02 98.177 1050.55 86.8614 1050.55 73.2218C1050.55 59.5949 1062.04 48.127 1076.86 48.127C1082.93 48.2159 1089.96 50.794 1093.91 54.4388L1086.88 64.0653C1084.22 61.5761 1080.39 59.9759 1076.86 59.9759C1069.75 59.9759 1063.5 65.8178 1063.5 73.1964C1063.5 79.8892 1068.86 86.4169 1077.7 86.4169C1083.48 86.4169 1087.59 83.6356 1087.77 79.0637H1076.84V69.6151H1101.35C1101.58 71.2026 1101.73 72.7519 1101.73 74.2632Z" fill="black"/>
<path d="M1107.94 49.2827H1120.63V97.0467H1107.94V49.2827Z" fill="black"/>
<path d="M1141.44 61.0681V67.7355H1156.62V78.3145H1141.44V85.1597H1159.87V97.0467H1128.91V49.2827H1159.87V61.0808H1141.44V61.0681Z" fill="black"/>
<path d="M1164.43 88.9569L1172.1 81.4259C1174.08 84.3596 1177.79 86.1375 1181.79 86.1375C1184.48 86.1375 1187.12 85.1596 1187.12 83.2039C1187.12 80.7401 1182.23 78.5812 1177.55 76.5111C1171.5 73.9077 1166.32 69.9326 1166.32 62.7318C1166.32 54.4642 1174.17 48.5715 1183.24 48.5715C1190.53 48.5715 1196.22 52.0132 1198.08 56.7248L1190.77 63.7732C1189.35 61.2586 1185.67 60.1537 1183.39 60.1537C1180.79 60.1537 1178.92 61.4872 1178.92 63.1128C1178.92 65.3099 1182.3 66.021 1187.45 68.18C1194.92 71.3169 1199.87 75.8888 1199.87 82.9372C1199.87 92.0303 1191.4 97.6944 1181.83 97.6944C1173.97 97.6944 1166.83 94.2273 1164.43 88.9569Z" fill="black"/>
<path d="M415 149.941H599.185" stroke="black" stroke-width="4.2689" stroke-miterlimit="10"/>
<path d="M653.49 136.226V139.223H640.295V148.468H653.49V151.465H640.295V160.711H653.49V163.708H636.32V136.226H653.49Z" fill="black"/>
<path d="M662.265 136.226L680.248 158.184V136.226H684.21V163.695H679.829L662.316 142.296V163.695H658.354V136.226H662.265Z" fill="black"/>
<path d="M697.812 149.243C695.551 148.595 693.723 147.668 692.351 146.474C690.979 145.28 690.294 143.833 690.294 142.144C690.294 140.493 691.005 139.032 692.427 137.788C693.85 136.53 695.628 135.908 697.748 135.908C699.844 135.908 701.635 136.556 703.12 137.838C703.895 138.499 704.505 139.426 704.936 140.62L701.381 141.826C700.936 140.798 700.542 140.124 700.199 139.82C699.488 139.185 698.663 138.867 697.748 138.867C696.847 138.867 696.034 139.172 695.323 139.794C694.612 140.416 694.256 141.191 694.256 142.156C694.256 143.096 694.624 143.896 695.348 144.557C696.11 145.192 697.152 145.776 698.46 146.309C700.974 147.02 703.082 148.113 704.771 149.586C706.715 151.262 707.692 153.256 707.692 155.542C707.692 157.828 706.727 159.822 704.81 161.485C702.892 163.162 700.53 164 697.736 164C694.929 164 692.554 163.136 690.611 161.422C689.087 160.114 688.16 158.412 687.804 156.329L691.614 155.123C691.843 157.117 692.503 158.577 693.57 159.492C694.739 160.508 696.123 161.016 697.736 161.016C699.361 161.016 700.771 160.495 701.977 159.441C703.184 158.387 703.781 157.091 703.781 155.542C703.781 153.993 703.184 152.697 702.003 151.669C700.822 150.64 699.412 149.827 697.812 149.243Z" fill="black"/>
<path d="M729.092 136.226H733.054V155.656C732.711 157.802 731.657 159.657 729.879 161.206C727.822 163.009 725.269 163.911 722.221 163.911C719.148 163.911 716.57 162.997 714.487 161.168C712.391 159.339 711.35 157.18 711.35 154.666V136.226H715.312V154.691C715.312 156.444 715.998 157.93 717.37 159.123C718.741 160.33 720.354 160.927 722.221 160.927C724.062 160.927 725.663 160.33 727.034 159.123C728.406 157.917 729.079 156.444 729.079 154.691V136.226H729.092Z" fill="black"/>
<path d="M745.652 154.704H741.944V163.695H737.981V136.226H747.011C749.64 136.53 751.837 137.457 753.615 139.007C755.672 140.797 756.701 142.944 756.701 145.446C756.701 147.947 755.647 150.132 753.526 151.973C752.129 153.205 750.884 153.942 749.805 154.17L756.891 163.695H752.307L745.652 154.704ZM741.944 139.235V151.681H745.843C747.684 151.681 749.297 151.084 750.669 149.903C752.04 148.709 752.726 147.224 752.726 145.446C752.726 143.68 752.04 142.207 750.669 141.013C749.297 139.832 747.684 139.235 745.843 139.235H741.944Z" fill="black"/>
<path d="M764.994 136.226V163.695H761.032V136.226H764.994Z" fill="black"/>
<path d="M773.973 136.226L791.956 158.184V136.226H795.918V163.695H791.536L774.023 142.296V163.695H770.061V136.226H773.973Z" fill="black"/>
<path d="M827.591 159.949C824.365 162.641 820.606 164 816.327 164C811.742 164 807.856 162.628 804.694 159.873C801.531 157.117 799.944 153.815 799.944 149.954C799.944 146.131 801.531 142.842 804.694 140.061C807.856 137.292 811.729 135.895 816.327 135.895C820.594 135.895 824.505 137.305 828.061 140.137L825.293 142.271C822.397 140.048 819.413 138.931 816.327 138.931C812.961 138.931 810.053 139.997 807.614 142.131C805.163 144.265 803.944 146.868 803.944 149.954C803.944 153.065 805.163 155.669 807.614 157.802C810.066 159.923 812.974 160.99 816.327 160.99C819.209 160.99 821.648 160.292 823.654 158.895V150.538H827.604V159.949H827.591Z" fill="black"/>
<path d="M858.592 136.226V139.223H847.251V148.468H858.592V151.465H847.251V163.708H843.288V136.226H858.592Z" fill="black"/>
<path d="M879.927 136.226H883.889V155.656C883.559 157.802 882.493 159.657 880.715 161.206C878.657 163.009 876.104 163.911 873.057 163.911C869.983 163.911 867.405 162.997 865.322 161.168C863.227 159.339 862.185 157.18 862.185 154.666V136.226H866.148V154.691C866.148 156.444 866.834 157.93 868.205 159.123C869.577 160.33 871.19 160.927 873.057 160.927C874.898 160.927 876.498 160.33 877.87 159.123C879.241 157.917 879.914 156.444 879.914 154.691V136.226H879.927Z" fill="black"/>
<path d="M898.545 139.223V163.695H894.595V139.223H887.052V136.226H906.063V139.223H898.545Z" fill="black"/>
<path d="M926.954 136.226H930.917V155.656C930.587 157.802 929.52 159.657 927.742 161.206C925.684 163.009 923.132 163.911 920.084 163.911C917.011 163.911 914.432 162.997 912.35 161.168C910.254 159.339 909.213 157.18 909.213 154.666V136.226H913.175V154.691C913.175 156.444 913.861 157.93 915.233 159.123C916.604 160.33 918.217 160.927 920.084 160.927C921.925 160.927 923.526 160.33 924.897 159.123C926.269 157.917 926.942 156.444 926.942 154.691V136.226H926.954Z" fill="black"/>
<path d="M943.515 154.704H939.807V163.695H935.844V136.226H944.874C947.503 136.53 949.7 137.457 951.478 139.007C953.535 140.797 954.564 142.944 954.564 145.446C954.564 147.947 953.51 150.132 951.389 151.973C949.979 153.205 948.747 153.942 947.655 154.17L954.742 163.695H950.157L943.515 154.704ZM939.807 139.235V151.681H943.706C945.547 151.681 947.16 151.084 948.531 149.903C949.903 148.709 950.589 147.224 950.589 145.446C950.589 143.68 949.903 142.207 948.531 141.013C947.16 139.832 945.547 139.235 943.706 139.235H939.807Z" fill="black"/>
<path d="M975.836 136.226V139.223H962.641V148.468H975.836V151.465H962.641V160.711H975.836V163.708H958.666V136.226H975.836Z" fill="black"/>
<path d="M1009.01 143.096L1015.38 157.434L1021.92 136.226H1025.94L1017.48 163.695H1014.01L1007.7 149.23L1001.36 163.695H997.896L989.438 136.226H993.476L1000.03 157.434L1006.37 143.096H1009.01Z" fill="black"/>
<path d="M1032.58 136.226V163.695H1028.62V136.226H1032.58Z" fill="black"/>
<path d="M1047.44 139.223V163.695H1043.49V139.223H1035.94V136.226H1054.96V139.223H1047.44Z" fill="black"/>
<path d="M1061.7 151.453V163.695H1057.74V136.226H1061.7V148.468H1074.65V136.226H1078.62V163.695H1074.65V151.453H1061.7Z" fill="black"/>
<path d="M1104.02 139.223V163.695H1100.07V139.223H1092.52V136.226H1111.53V139.223H1104.02Z" fill="black"/>
<path d="M1131.87 136.226V139.223H1118.67V148.468H1131.87V151.465H1118.67V160.711H1131.87V163.708H1114.7V136.226H1131.87Z" fill="black"/>
<path d="M1161.28 157.637L1164.05 159.771C1160.49 162.59 1156.58 163.987 1152.31 163.987C1147.73 163.987 1143.84 162.616 1140.68 159.86C1137.52 157.104 1135.93 153.802 1135.93 149.941C1135.93 146.119 1137.52 142.829 1140.68 140.048C1143.84 137.28 1147.73 135.883 1152.31 135.883C1156.58 135.883 1160.49 137.292 1164.05 140.124L1161.28 142.258C1158.38 140.035 1155.4 138.918 1152.31 138.918C1148.95 138.918 1146.04 139.985 1143.6 142.118C1141.15 144.252 1139.93 146.855 1139.93 149.941C1139.93 153.053 1141.15 155.656 1143.6 157.79C1146.05 159.911 1148.96 160.977 1152.31 160.977C1155.4 160.977 1158.4 159.873 1161.28 157.637Z" fill="black"/>
<path d="M1171.45 151.453V163.695H1167.49V136.226H1171.45V148.468H1184.4V136.226H1188.37V163.695H1184.4V151.453H1171.45Z" fill="black"/>
</svg>
