<?xml version="1.0" encoding="utf-8"?>
<!-- Generator: Adobe Illustrator 27.3.1, SVG Export Plug-In . SVG Version: 6.00 Build 0)  -->
<svg version="1.1" id="Layer_1" xmlns="http://www.w3.org/2000/svg" xmlns:xlink="http://www.w3.org/1999/xlink" x="0px" y="0px"
	 viewBox="0 0 1080 1080" style="enable-background:new 0 0 1080 1080;" xml:space="preserve">
<style type="text/css">
	.st0{fill:#3D65B0;}
	.st1{fill:none;stroke:#000000;stroke-width:4.2689;stroke-miterlimit:10;}
	.st2{fill:none;stroke:#000000;stroke-width:6.0137;stroke-miterlimit:10;}
</style>
<g>
	<path class="st0" d="M471.18,548.69c-2.99,73.68-58.87,132.9-129.52,142.59c-10.62,1.46-18.43,10.71-18.43,21.44v0
		c0,13.14,11.59,23.39,24.6,21.59c90.98-12.59,162.95-88.93,166.79-183.86c3.62-89.27-54.14-167.03-135.61-192.53
		c-14.06-4.4-28.4,5.9-28.4,20.64c0,9.43,5.94,18.03,14.94,20.82C428.96,418.99,473.99,479.31,471.18,548.69z"/>
	<path class="st0" d="M207.01,709.06c-9.98,0-19.17,3.28-26.64,8.77c-55.27-44.19-86.74-111.69-83.8-184.33
		c2.82-69.5,37.34-132.58,92.35-172.6c7.75,6.27,17.6,10.03,28.34,10.03c24.91,0,45.1-20.19,45.1-45.1s-20.19-45.1-45.1-45.1
		c-24.91,0-45.1,20.19-45.1,45.1c0,2.85,0.29,5.63,0.8,8.33C109,379.61,68.78,452.18,65.53,532.25
		c-3.39,83.65,33.32,161.31,97.61,211.55c-0.78,3.33-1.24,6.79-1.24,10.36c0,24.91,20.19,45.1,45.1,45.1
		c24.91,0,45.1-20.19,45.1-45.1S231.92,709.06,207.01,709.06z"/>
	<path class="st0" d="M771.62,638.53c-18.4,0-34.19,11.03-41.21,26.82H509.88c-0.03,0.01-0.05,0.03-0.08,0.04l-4.61,6.54
		c-39.34,55.85-100.84,90.19-167.82,94.93c-8.15,0.58-14.5,7.27-14.5,15.45c0,8.96,7.58,16.16,16.52,15.54
		c73.68-5.14,141.45-41.7,186.37-101.4c0.03-0.01,0.05-0.03,0.08-0.04h202.54c5.51,18.68,22.77,32.33,43.24,32.33
		c24.91,0,45.1-20.19,45.1-45.1C816.72,658.72,796.53,638.53,771.62,638.53z"/>
	<path class="st0" d="M879.37,571.75c-18.86,0-34.99,11.58-41.73,28.01H564.66c-8.58,0-15.53,6.95-15.53,15.53
		c0,8.58,6.95,15.53,15.53,15.53h271.83c5.88,18.07,22.84,31.14,42.88,31.14c24.91,0,45.1-20.19,45.1-45.1
		C924.47,591.94,904.28,571.75,879.37,571.75z"/>
	<path class="st0" d="M969.58,449.79c-17.83,0-33.2,10.38-40.52,25.39H759.24l-61.63,61.63H577.07
		C574.24,408.43,475.7,301.46,348.01,288.1c-8.89-0.93-16.71,5.94-17.07,14.87c-0.33,8.16,5.73,15.17,13.86,16.02
		c116.85,12.24,205.91,113.7,201.09,232.72l-0.66,16.16h165.25l61.63-61.63h153.86c5.04,19.41,22.62,33.76,43.61,33.76
		c24.91,0,45.1-20.19,45.1-45.1C1014.68,469.99,994.49,449.79,969.58,449.79z"/>
	<path class="st0" d="M614.07,461.14c19.44,0,35.97-12.33,42.3-29.58h180.69c6.34,17.25,22.86,29.58,42.3,29.58
		c24.91,0,45.1-20.19,45.1-45.1s-20.19-45.1-45.1-45.1c-19.44,0-35.97,12.33-42.3,29.58H656.38c-6.33-17.25-22.86-29.58-42.3-29.58
		c-24.91,0-45.1,20.19-45.1,45.1S589.16,461.14,614.07,461.14z"/>
	<g>
		<path class="st0" d="M270.49,480.2v44.57h71.88v41.43h-71.88v48.34h81.3v43H216.81V437.19h134.97v43H270.49z"/>
	</g>
</g>
</svg>
