<?xml version="1.0" encoding="utf-8"?>
<!-- Generator: Adobe Illustrator 27.3.1, SVG Export Plug-In . SVG Version: 6.00 Build 0)  -->
<svg version="1.1" id="Layer_1" xmlns="http://www.w3.org/2000/svg" xmlns:xlink="http://www.w3.org/1999/xlink" x="0px" y="0px"
	 viewBox="0 0 1080 1080" style="enable-background:new 0 0 1080 1080;" xml:space="preserve">
<style type="text/css">
	.st0{fill:#3D65B0;}
	.st1{fill:none;stroke:#000000;stroke-width:4.2689;stroke-miterlimit:10;}
	.st2{fill:none;stroke:#000000;stroke-width:6.0137;stroke-miterlimit:10;}
</style>
<g>
	<g>
		<path class="st0" d="M513.73,460.73c-1.14,28.12-22.47,50.73-49.44,54.43c-4.05,0.56-7.04,4.09-7.04,8.18v0
			c0,5.01,4.42,8.93,9.39,8.24c34.73-4.8,62.2-33.95,63.67-70.18c1.38-34.08-20.67-63.76-51.76-73.49
			c-5.37-1.68-10.84,2.25-10.84,7.88c0,3.6,2.27,6.88,5.7,7.95C497.61,411.22,514.8,434.24,513.73,460.73z"/>
		<path class="st0" d="M412.89,521.94c-3.81,0-7.32,1.25-10.17,3.35c-21.1-16.87-33.11-42.63-31.99-70.36
			c1.07-26.53,14.25-50.61,35.25-65.88c2.96,2.39,6.72,3.83,10.82,3.83c9.51,0,17.22-7.71,17.22-17.22s-7.71-17.22-17.22-17.22
			c-9.51,0-17.22,7.71-17.22,17.22c0,1.09,0.11,2.15,0.31,3.18c-24.41,17.35-39.76,45.05-41,75.61
			c-1.29,31.93,12.72,61.57,37.26,80.75c-0.3,1.27-0.48,2.59-0.48,3.96c0,9.51,7.71,17.22,17.22,17.22
			c9.51,0,17.22-7.71,17.22-17.22S422.4,521.94,412.89,521.94z"/>
		<path class="st0" d="M628.41,495.02c-7.02,0-13.05,4.21-15.73,10.24H528.5c-0.01,0.01-0.02,0.01-0.03,0.02l-1.76,2.5
			c-15.02,21.32-38.49,34.43-64.06,36.24c-3.11,0.22-5.54,2.78-5.54,5.9c0,3.42,2.89,6.17,6.3,5.93
			c28.12-1.96,53.99-15.92,71.14-38.71c0.01-0.01,0.02-0.01,0.03-0.02h77.31c2.1,7.13,8.69,12.34,16.51,12.34
			c9.51,0,17.22-7.71,17.22-17.22C645.63,502.73,637.92,495.02,628.41,495.02z"/>
		<path class="st0" d="M669.54,469.53c-7.2,0-13.36,4.42-15.93,10.69h-104.2c-3.27,0-5.93,2.65-5.93,5.93
			c0,3.27,2.65,5.93,5.93,5.93h103.76c2.24,6.9,8.72,11.89,16.37,11.89c9.51,0,17.22-7.71,17.22-17.22
			C686.76,477.24,679.05,469.53,669.54,469.53z"/>
		<path class="st0" d="M703.97,422.98c-6.81,0-12.67,3.96-15.47,9.69h-64.82l-23.52,23.52h-46.01
			c-1.08-49.01-38.69-89.84-87.43-94.94c-3.39-0.35-6.38,2.27-6.52,5.68c-0.13,3.12,2.19,5.79,5.29,6.11
			c44.6,4.67,78.6,43.4,76.76,88.83l-0.25,6.17h63.08l23.52-23.52h58.73c1.92,7.41,8.64,12.89,16.65,12.89
			c9.51,0,17.22-7.71,17.22-17.22C721.19,430.69,713.48,422.98,703.97,422.98z"/>
		<path class="st0" d="M568.27,427.31c7.42,0,13.73-4.71,16.15-11.29h68.97c2.42,6.58,8.72,11.29,16.15,11.29
			c9.51,0,17.22-7.71,17.22-17.22s-7.71-17.22-17.22-17.22c-7.42,0-13.73,4.71-16.15,11.29h-68.97
			c-2.42-6.58-8.72-11.29-16.15-11.29c-9.51,0-17.22,7.71-17.22,17.22S558.77,427.31,568.27,427.31z"/>
		<g>
			<path class="st0" d="M437.12,434.58v17.01h27.44v15.82h-27.44v18.45h31.03v16.41h-51.52v-84.11h51.52v16.41H437.12z"/>
		</g>
	</g>
	<g>
		<g>
			<path d="M118.59,607.39v7.4h16.83v11.73h-16.83v7.59h20.44v13.18h-34.35V594.3h34.35v13.08H118.59z"/>
			<path d="M193.17,620.86c0,16.43-11.01,26.43-29.02,26.43h-17.29v-52.95l17.29-0.03C182.15,594.24,193.17,604.3,193.17,620.86z
				 M179.06,620.83c0-8.32-5.79-13.38-15.28-13.38h-3.22v26.59h3.35C173.31,634.04,179.06,629.05,179.06,620.83z"/>
			<path d="M200.06,594.3h14.07v52.99h-14.07V594.3z"/>
			<path d="M237.23,607.39v8.58h16.83v11.77h-16.83v19.62h-13.9v-53.18h34.35v13.21H237.23z"/>
			<path d="M263.64,594.3h14.07v52.99h-14.07V594.3z"/>
			<path d="M284.61,620.8c0-15.68,12.69-27.74,29.19-27.74c6.84,0.1,14.17,3.09,19.59,8.02l-8.09,10.39
				c-3.25-2.96-7.56-4.9-11.47-4.9c-8.15,0-14.96,6.21-14.96,14.33c0,8.22,7.1,14.26,14.66,14.26c4.44,0,8.41-2.1,11.83-5.16
				l8.02,10.68c-5.06,4.6-11.8,7.79-19.85,7.79C298.58,648.47,284.61,637.43,284.61,620.8z"/>
			<path d="M353.26,607.39v7.4h16.83v11.73h-16.83v7.59h20.44v13.18h-34.35V594.3h34.35v13.08H353.26z"/>
			<path d="M438.35,607.45h-12.69v39.84h-14.1v-39.84h-12.72V594.3h39.51V607.45z"/>
			<path d="M458.22,607.39v7.4h16.83v11.73h-16.83v7.59h20.44v13.18h-34.35V594.3h34.35v13.08H458.22z"/>
			<path d="M484.18,620.8c0-15.68,12.69-27.74,29.19-27.74c6.84,0.1,14.17,3.09,19.59,8.02l-8.09,10.39
				c-3.25-2.96-7.56-4.9-11.47-4.9c-8.15,0-14.96,6.21-14.96,14.33c0,8.22,7.1,14.26,14.66,14.26c4.44,0,8.41-2.1,11.83-5.16
				l8.02,10.68c-5.06,4.6-11.8,7.79-19.85,7.79C498.15,648.47,484.18,637.43,484.18,620.8z"/>
			<path d="M582.78,594.3v52.99h-14.03v-19.95H553v19.95h-14.07V594.3H553v19.89h15.74V594.3H582.78z"/>
			<path d="M637.75,594.24v53.58h-4.47l-27.25-26.39v25.9h-14.07v-53.54h4.54l27.15,26.3v-25.84H637.75z"/>
			<path d="M644.64,620.86c0-15.91,12.62-27.97,29.09-27.97s29.09,12.06,29.09,27.97c0,15.78-12.62,27.77-29.12,27.77
				C657.23,648.64,644.64,636.64,644.64,620.86z M688.59,620.76c0-8.18-6.44-14.5-14.86-14.5c-8.41,0-14.86,6.31-14.86,14.5
				c0,8.15,6.44,14.43,14.86,14.43C682.15,635.19,688.59,628.92,688.59,620.76z"/>
			<path d="M744.06,634.08v13.21h-34.35V594.3h14.07v39.77H744.06z"/>
			<path d="M746.91,620.86c0-15.91,12.62-27.97,29.09-27.97s29.09,12.06,29.09,27.97c0,15.78-12.62,27.77-29.12,27.77
				C759.5,648.64,746.91,636.64,746.91,620.86z M790.86,620.76c0-8.18-6.44-14.5-14.86-14.5c-8.41,0-14.86,6.31-14.86,14.5
				c0,8.15,6.44,14.43,14.86,14.43C784.41,635.19,790.86,628.92,790.86,620.76z"/>
			<path d="M866.44,622.01c0,16.11-12.16,26.52-27.22,26.52c-16.83,0-29.55-12.56-29.55-27.67c0-15.12,12.75-27.84,29.19-27.84
				c6.74,0.1,14.53,2.96,18.9,7l-7.79,10.68c-2.96-2.76-7.2-4.53-11.11-4.53c-7.89,0-14.82,6.47-14.82,14.66
				c0,7.43,5.95,14.66,15.74,14.66c6.41,0,10.98-3.09,11.17-8.15h-12.13v-10.49h27.18C866.28,618.63,866.44,620.34,866.44,622.01z"
				/>
			<path d="M873.33,594.3h14.07v52.99h-14.07V594.3z"/>
			<path d="M910.5,607.39v7.4h16.83v11.73H910.5v7.59h20.44v13.18H896.6V594.3h34.35v13.08H910.5z"/>
			<path d="M936,638.32l8.51-8.35c2.2,3.25,6.31,5.23,10.75,5.23c2.99,0,5.92-1.09,5.92-3.25c0-2.73-5.42-5.13-10.62-7.43
				c-6.71-2.89-12.46-7.3-12.46-15.28c0-9.17,8.71-15.71,18.77-15.71c8.09,0,14.4,3.81,16.47,9.04l-8.12,7.82
				c-1.58-2.79-5.65-4.01-8.18-4.01c-2.89,0-4.96,1.48-4.96,3.29c0,2.43,3.75,3.22,9.47,5.62c8.28,3.48,13.77,8.55,13.77,16.37
				c0,10.09-9.4,16.37-20.02,16.37C946.58,648.01,938.66,644.17,936,638.32z"/>
		</g>
		<g>
			<line class="st2" x1="104.69" y1="705.97" x2="309" y2="705.97"/>
			<g>
				<path d="M369.24,690.75v3.32H354.6v10.25h14.64v3.32H354.6v10.25h14.64v3.32H350.2v-30.47H369.24z"/>
				<path d="M378.97,690.75l19.94,24.35v-24.35h4.4v30.47h-4.86l-19.43-23.74v23.74h-4.4v-30.47H378.97z"/>
				<path d="M418.4,705.19c-2.51-0.72-4.53-1.74-6.06-3.07c-1.52-1.33-2.29-2.93-2.29-4.81c0-1.83,0.79-3.45,2.37-4.84
					c1.58-1.39,3.55-2.09,5.9-2.09c2.32,0,4.31,0.71,5.96,2.14c0.86,0.73,1.53,1.77,2.02,3.09l-3.94,1.33
					c-0.49-1.14-0.92-1.88-1.31-2.22c-0.79-0.71-1.7-1.06-2.72-1.06c-1.01,0-1.9,0.34-2.69,1.03c-0.79,0.68-1.18,1.56-1.18,2.61
					c0,1.05,0.4,1.93,1.22,2.67c0.84,0.71,1.99,1.36,3.45,1.95c2.79,0.79,5.12,2,7,3.64c2.16,1.86,3.24,4.07,3.24,6.61
					c0,2.54-1.07,4.74-3.2,6.6c-2.13,1.86-4.75,2.78-7.84,2.78c-3.11,0-5.75-0.95-7.9-2.86c-1.69-1.45-2.72-3.34-3.11-5.65
					l4.23-1.33c0.26,2.22,0.98,3.83,2.16,4.85c1.3,1.13,2.84,1.69,4.62,1.69c1.8,0,3.37-0.58,4.71-1.75
					c1.34-1.17,2.01-2.61,2.01-4.33c0-1.72-0.66-3.15-1.97-4.3C421.74,706.73,420.18,705.84,418.4,705.19z"/>
				<path d="M453.11,690.75h4.4v21.56c-0.37,2.39-1.55,4.44-3.53,6.16c-2.29,2.01-5.12,3.01-8.49,3.01c-3.41,0-6.27-1.01-8.59-3.04
					c-2.32-2.02-3.48-4.43-3.48-7.21v-20.48h4.4v20.48c0,1.95,0.76,3.59,2.29,4.92c1.52,1.33,3.32,2,5.38,2c2.04,0,3.82-0.67,5.34-2
					c1.52-1.33,2.27-2.98,2.27-4.92V690.75z"/>
				<path d="M471.47,711.24h-4.11v9.97h-4.4v-30.47h10.02c2.92,0.34,5.36,1.37,7.32,3.09c2.29,1.99,3.43,4.37,3.43,7.14
					c0,2.78-1.18,5.2-3.53,7.24c-1.56,1.37-2.93,2.18-4.13,2.43l7.86,10.57h-5.08L471.47,711.24z M467.36,694.09v13.81h4.33
					c2.04,0,3.83-0.66,5.35-1.98c1.52-1.32,2.29-2.97,2.29-4.94c0-1.96-0.76-3.6-2.29-4.91c-1.52-1.31-3.31-1.97-5.35-1.97H467.36z"
					/>
				<path d="M492.92,690.75v30.47h-4.4v-30.47H492.92z"/>
				<path d="M502.89,690.75l19.94,24.35v-24.35h4.4v30.47h-4.86l-19.43-23.74v23.74h-4.4v-30.47H502.89z"/>
				<path d="M562.36,717.07c-3.58,2.99-7.75,4.49-12.5,4.49c-5.09,0-9.39-1.53-12.9-4.58c-3.51-3.06-5.27-6.72-5.27-11
					c0-4.24,1.75-7.89,5.27-10.97c3.51-3.08,7.81-4.62,12.9-4.62c4.73,0,9.07,1.57,13.01,4.7l-3.06,2.37
					c-3.21-2.47-6.53-3.71-9.95-3.71c-3.73,0-6.95,1.18-9.67,3.55c-2.72,2.37-4.07,5.25-4.07,8.67c0,3.44,1.36,6.34,4.07,8.7
					c2.72,2.36,5.94,3.54,9.67,3.54c3.19,0,5.9-0.78,8.12-2.33v-9.27h4.38V717.07z"/>
				<path d="M596.75,690.75v3.32h-12.57v10.25h12.57v3.32h-12.57v13.57h-4.4v-30.47H596.75z"/>
				<path d="M620.41,690.75h4.4v21.56c-0.37,2.39-1.55,4.44-3.53,6.16c-2.29,2.01-5.12,3.01-8.49,3.01c-3.41,0-6.27-1.01-8.59-3.04
					c-2.32-2.02-3.48-4.43-3.48-7.21v-20.48h4.4v20.48c0,1.95,0.76,3.59,2.29,4.92c1.52,1.33,3.32,2,5.37,2c2.04,0,3.82-0.67,5.34-2
					c1.52-1.33,2.27-2.98,2.27-4.92V690.75z"/>
				<path d="M641.06,694.07v27.15h-4.38v-27.15h-8.37v-3.32h21.09v3.32H641.06z"/>
				<path d="M672.58,690.75h4.4v21.56c-0.37,2.39-1.55,4.44-3.53,6.16c-2.29,2.01-5.12,3.01-8.49,3.01c-3.41,0-6.27-1.01-8.59-3.04
					c-2.32-2.02-3.48-4.43-3.48-7.21v-20.48h4.4v20.48c0,1.95,0.76,3.59,2.29,4.92c1.52,1.33,3.32,2,5.37,2c2.04,0,3.82-0.67,5.34-2
					c1.52-1.33,2.27-2.98,2.27-4.92V690.75z"/>
				<path d="M690.95,711.24h-4.11v9.97h-4.4v-30.47h10.02c2.92,0.34,5.36,1.37,7.32,3.09c2.29,1.99,3.43,4.37,3.43,7.14
					c0,2.78-1.18,5.2-3.53,7.24c-1.56,1.37-2.94,2.18-4.14,2.43l7.86,10.57h-5.08L690.95,711.24z M686.84,694.09v13.81h4.33
					c2.04,0,3.83-0.66,5.35-1.98c1.52-1.32,2.29-2.97,2.29-4.94c0-1.96-0.76-3.6-2.29-4.91c-1.52-1.31-3.31-1.97-5.35-1.97H686.84z"
					/>
				<path d="M726.8,690.75v3.32h-14.64v10.25h14.64v3.32h-14.64v10.25h14.64v3.32h-19.04v-30.47H726.8z"/>
				<path d="M763.6,698.37l7.08,15.9l7.25-23.53h4.45l-9.39,30.47h-3.84l-7.01-16.05l-7.03,16.05h-3.84l-9.39-30.47h4.48l7.27,23.53
					l7.03-15.9H763.6z"/>
				<path d="M789.74,690.75v30.47h-4.4v-30.47H789.74z"/>
				<path d="M806.23,694.07v27.15h-4.38v-27.15h-8.37v-3.32h21.09v3.32H806.23z"/>
				<path d="M822.04,707.64v13.57h-4.4v-30.47h4.4v13.57h14.37v-13.57h4.4v30.47h-4.4v-13.57H822.04z"/>
				<path d="M868.98,694.07v27.15h-4.38v-27.15h-8.37v-3.32h21.09v3.32H868.98z"/>
				<path d="M899.87,690.75v3.32h-14.64v10.25h14.64v3.32h-14.64v10.25h14.64v3.32h-19.04v-30.47H899.87z"/>
				<path d="M932.51,714.51l3.06,2.37c-3.94,3.12-8.28,4.68-13.01,4.68c-5.09,0-9.39-1.53-12.9-4.58c-3.51-3.06-5.27-6.72-5.27-11
					c0-4.24,1.75-7.89,5.27-10.97c3.51-3.08,7.81-4.62,12.9-4.62c4.73,0,9.07,1.57,13.01,4.7l-3.06,2.37
					c-3.21-2.47-6.53-3.71-9.95-3.71c-3.73,0-6.95,1.18-9.67,3.55c-2.72,2.37-4.07,5.25-4.07,8.67c0,3.44,1.36,6.34,4.07,8.7
					c2.72,2.36,5.94,3.54,9.67,3.54C925.98,718.21,929.3,716.98,932.51,714.51z"/>
				<path d="M943.79,707.64v13.57h-4.4v-30.47h4.4v13.57h14.37v-13.57h4.4v30.47h-4.4v-13.57H943.79z"/>
			</g>
		</g>
	</g>
</g>
</svg>
